<?xml version="1.0" encoding="UTF-8"?>
<svg id="Layer_1" xmlns="http://www.w3.org/2000/svg" version="1.1" viewBox="0 0 64 64">
  <!-- Generator: Adobe Illustrator 30.1.0, SVG Export Plug-In . SVG Version: 2.1.1 Build 136)  -->
  <defs>
    <style>
      .st0 {
        fill: #fcf5dd;
      }

      .st1 {
        fill: #db2726;
      }

      .st2 {
        fill: #fcf5db;
      }

      .st3 {
        fill: #eb8168;
      }

      .st4 {
        fill: #d32927;
      }
    </style>
  </defs>
  <path class="st0" d="M11.93,50.3c-3.17-4.79-4.29-10.1-2.82-15.41,1.44-5.16,4.98-1.6,6.19-7.74,1.14-5.82,4.51-11.21,9.14-14.82,1.8-1.4,3.93-.45,5.1,1.48,3.85-2.98-.33-8.29,1.43-10.64,2.1-2.81,13.08,3.19,16.72,13.52.85,2.42.07,3.61.6,4.41.57.85,3.34-.59,4.35,2.4,1.57,4.68,2.69,9.46,2.88,14.5.35,9.42-4.78,18.14-13.55,21.74-10.93,4.47-23.52.43-30.03-9.42Z"/>
  <path class="st4" d="M31.9,57.5c-8.01-.74-14.81-6.08-16.72-13.7-.97-3.87-.37-7.81,2.16-10.75,1.42.92,2.03,2.21,3.53,2.88-1.75-5.24-.62-10.7,3.44-14.52l4.78,5.6,3.57-4.9c2.66-3.65,3.71-7.49,3.06-12.38,4.29,2.96,7.08,7.6,8.13,12.52.68,3.18.06,6.24-.44,9.13l4.6-4.12c2.29,2.75,2.47,6.01,2.94,9.35.96,6.8-1.12,13.64-6.79,17.76-3.5,2.55-7.77,3.55-12.28,3.14Z"/>
  <path class="st2" d="M18.61,47.47c-2.08-3.53-2.34-7.61-.74-11.23,1.29.43,5.17,5.14,6.12,4.61,1.54-.87-4.69-9,.29-16.1,2.37,1.42,4.28,7.34,5.65,4.96,3.54-6.16,7.1-8.05,8.19-14.61,3.23,3.52,4.57,7.95,3.82,12.58l-1.04,6.47c-.06.37.2.72.36.91.21.25.65.14,1-.15l5.37-4.5c.73.93.75,2.17.89,3.41l.67,5.87c.79,6.87-3.35,13.12-9.96,15.34-7.68,2.59-16.38-.39-20.62-7.56Z"/>
  <path class="st1" d="M20.74,43.96l5.13,2.53c.84.42,1.75-.61,1.86-1.61.59-5.35-1.71-7.36,1.7-9.05,1.65-.82,3.36-1.65,4.44-3.18l3.64-5.14c.09,5.4.09,10.35,1.68,15.26,1.26,3.87,4.61-4.25,6.21-4.66.34,2.59.14,4.99-.44,7.38-1.63,6.82-8.54,10.6-15.31,8.47-4.4-1.38-7.72-5.23-8.91-10.02Z"/>
  <path class="st3" d="M30.02,38.41c-.26.74-.48.72-.66-.19l3.31-2.21c-.59,1.25-1.93,1.23-2.65,2.4Z"/>
  <path class="st3" d="M29.95,39.7c.24-.76,1.12-.98,1.81-1.5-.45.53-.81,1.23-1.81,1.5Z"/>
</svg>