<?xml version="1.0" encoding="UTF-8"?>
<svg id="Layer_1" xmlns="http://www.w3.org/2000/svg" version="1.1" viewBox="0 0 64 64">
  <!-- Generator: Adobe Illustrator 30.1.0, SVG Export Plug-In . SVG Version: 2.1.1 Build 136)  -->
  <defs>
    <style>
      .st0 {
        fill: #faf3de;
      }

      .st1 {
        fill: #faf2de;
      }

      .st2 {
        fill: #faedd6;
      }

      .st3 {
        fill: #faf1db;
      }

      .st4 {
        fill: #faf2dc;
      }

      .st5 {
        fill: #faf0da;
      }

      .st6 {
        fill: #f8efda;
      }

      .st7 {
        fill: #1f371f;
      }

      .st8 {
        fill: #c9323c;
      }

      .st9 {
        fill: #faf3db;
      }

      .st10 {
        fill: #f7ead6;
      }

      .st11 {
        fill: #fbf1dd;
      }

      .st12 {
        fill: #f4e2c9;
      }

      .st13 {
        fill: #faf1da;
      }

      .st14 {
        fill: #f9f2e1;
      }

      .st15 {
        fill: #fbf4df;
      }

      .st16 {
        fill: #fbf3e1;
      }

      .st17 {
        fill: #faefd7;
      }

      .st18 {
        fill: #faf0d7;
      }

      .st19 {
        fill: #faf0d8;
      }

      .st20 {
        fill: #f9f0d9;
      }

      .st21 {
        fill: #faf1de;
      }

      .st22 {
        fill: #fbf1df;
      }

      .st23 {
        fill: #faf1d8;
      }

      .st24 {
        fill: #fbf2df;
      }

      .st25 {
        fill: #fbf2e2;
      }

      .st26 {
        fill: #faefd4;
      }

      .st27 {
        fill: #f7e8d5;
      }

      .st28 {
        fill: #fbf1de;
      }

      .st29 {
        fill: #f8f0dd;
      }

      .st30 {
        fill: #faedd3;
      }

      .st31 {
        fill: #f8ebd4;
      }

      .st32 {
        fill: #f9efd9;
      }

      .st33 {
        fill: #f8e9d7;
      }

      .st34 {
        fill: #fbf1d8;
      }

      .st35 {
        fill: #fbf2e0;
      }
    </style>
  </defs>
  <path class="st25" d="M36.79,54.35l-29.51-8.27c-.55-.15-1.03-.36-1.21-.63-.28-.42.05-1.04-.13-1.4.02-.12-.03-.3.03-.43.1-.2.39-.2.72-.11l23.54,6.51c2.28.63,4.42,1,6.6,1.8.57.21.8,2.93-.04,2.54Z"/>
  <path class="st4" d="M25.83,38.34c-.95-.2-.47-.98.48-.89-.39-2.26,1.34-2.17,2.12-.29.56-3.06,2.94-4.52,2.59-.03l.42.87c1.34-.88,2.09-.72,2.25.49.94-.87,1.83-.36,1.51.9,1.44-1.29,1.52-3.55.98-5.31-.63,1.43-3.56,3.53-4.19,1.4.69-2.37,1-4.42-1.07-6.19-.02,1.26-.21,3.56-1.87,2.8-.12,1.34-.97,4.18-2.44,2.75-.74-2.08-1.13-2.38-1.18-.9-.78,1.35-.88,2.61-.3,3.79l-.34.58-2.62-.05c-.27-.18-.58-.39-.68-.7-.41-1.32-.16-6.36.48-7.54.16-.3.49-.45.79-.58-.43-.26-.38-.39.15-.39-.65-.48-.33-.77.35-.78-.9-.6,1.07-3.02,1.69-3.65l.67-.04c4.81-.42,6.61,2.12,10.5,4.2,2.17,2.35,3.24,5.6,3.01,8.93l-.3,4.42-10.28-2.45c-1.1-.26-1.98-.67-2.73-1.36Z"/>
  <path class="st8" d="M25.83,38.34c0,.79-.62-.04-1.03-.02-1.71-3.05.46-3,.37-6.89,1.14.91,1.51,2.18,2.14,3.54,1.23-1.54,1.36-3.22,1.08-5.08.84.54.75,1.43,1.25,2.03.94-1.19.56-2.44.82-3.91,1.51,1.3,3.02,3.17,2.61,5.12l-.58,2.77c1.88-.13,3.23-1.44,3.63-3.37.98,1.71,1.15,3.45.71,5.2-.38,1.52-1.5,2.71-3.11,2.81.37-.75,1.13-1.06,1-2.11l-1.47,1.08-.31-1.74c-.55.43-1.38,1.16-1.93.6-.95-.96-.47-2.44-.58-3.74-1.13.76-1.29,2.1-1.64,3.47-.96-.26-1-1.2-1.69-1.92-1.06.44,1,2.9-.93,1.84-.33-.18-.71.09-.34.3Z"/>
  <path class="st7" d="M31.72,9.72c2.15.12,4.27.6,6.31,1.32,1.16-.7,2.37-1.04,3.63-1.04.26.13.52.55.89.53.08.53-.31,1-1.19,1.42l4.96,2.03c.87-.11,1.67-.44,2.41-.99l.9.08c.51.3,1.07.56,1.55.91l-.09.38c-1.57.55-3.06,1.23-4.49,2.04,1.1.95,1.91,1.99,2.43,3.13,1.75-.81,3.41-1.72,4.98-2.72.46.45.76,1.14,1.11,1.68l-.33.63c-.5.04-2.71,1-2.69,1.29.02.19,1.38,3.42,1.55,3.52l2.79-1.07.46.5c.12.25.49.44.57.7l-.24.57c-1.98.81-3.88,1.72-5.7,2.73l.63,3.23,5.08-2.13.78.38c.57.65.51,1.09.54,1.72l-.35.15c-.31-.61-3.23.84-3.33,1-.08.13.16,2.86.28,2.94l2.56-1.03.58.39c.11-.46.79,4.94,0,4.59l-.57-.45-.05-2.34c-.25-.01-4.29,1.94-4.46,2.13-.09.1-.08,2.67.05,2.69l4.17-1.85.61.36c.12.98.74,2.12-.02,2.9-.64-.14-.62-.49-.56-1.03-.19-.05-2.92,1.17-3.2,1.41-.07.06-.06,1.86.03,1.89l2.52-1.22.6.42c-.68.81.2,1.84-.57,2.25l-.65-.29c-5.93,3.3-11.9,6.46-17.9,9.46l-1.48-.6c.04-.71-.04-1.4-.25-2.06l-29.99-8.23c-.13-.19-.33-.19-.61-.02-.14-.29-.62-.41-.6-.8.04-.77.61-1.76,1.14-2.04l.56-.13c4.15,1.13,8.35,2.29,12.6,3.47,1.19-.46,2.24-1.04,3.14-1.74-3.92-.89-7.83-1.81-11.74-2.75l-.84-.85c.04-.23.11-.44.23-.64q.78-.7,0,0c-.71-.82.12-1.94-.21-2.84q.62-.64,0,0c-.76-1.3-.22-2.93-.18-4.47.03-.91-.63-2.09.17-2.69.41.42.62,1.09.64,1.98.98.8,1.45.3,1.42-1.49l.74-.23.39.16c-.14.52-.07.87.2,1.06.77.34.49,1.56.22,2.18,1.43.14,2.46.67,3.12,1.57.65.4.51.69-.21.77l-.45.48-2.42-.58c-.02,1.44-.08,2.87-.19,4.28,1.08.32,2.2.6,3.35.85l.33.66c.75.15,1.34,0,1.76-.43l.64.3c6.14,1.43,12.26,2.85,18.35,4.23v-.97s-14.87-3.83-14.87-3.83c-.59.05-1.04-.1-1.35-.43-.69-.5-.55-.88.3-.84,0-.95,2.21-.73,2.62.05.14-.65,1.06-.52.72,0l.31.02c2.49.69,5.25,1.37,7.9,2.01.07.02.1.18.12.4,1.44-.03,2.87.19,4.3.66.83-3.7.67-9.34-2.38-12.16-.69-.64-4.56-2.91-5.57-3.35-1.28-.55-2.56-.84-3.97-.75l-.61-.54c-.25-.32-.04-.49.64-.5-.92.59-1.73.7-2.43.34-.08-.59-.16-.75-.23-.47-.84.54-1.35-.29-.56-.87,0-1.08-.31-2.18-.91-3.3.26-1.13,3.34-.86,1.88.6.09,1.07.76,2.58,1.96,1.98.84.32,1.16.12.95-.62l.33-.6c-.21-1.45.11-2.05.94-1.81q.56,3.16,0,0c-.5-.47.75-.99,1.16-.83h0c-.57.11-.66,0-.27-.32l.07-.8c-2.69-.56-4.9-.21-6.98,1.63-.02.37-.2.61-.56.7-.23.48-.74.8-1.51.99l-1.4,1.14c.73,1.23,1.52,2.39,2.38,3.48.47.74-.64,1.53-1.24.94-.69-.26-1.29-.83-1.81-1.74-.71-1.28-1.4-1.11-2.06.52-.29,1-.78,1.67-1.45,2,.2.56-.9,1.04-1.23.63-.43.84-2.65-.07-2.81-.85-.03-.83.21-1.63.57-2.33.25-.04.44.03.58.22-.56.68,1.21,1.4,1.47,1.2.12-.09,1.36-2.48,1.33-2.62-.06-.29-1.47-.69-1.86-.73l-.35-.61c.24-.62.37-.96.81-1.41.5-.03,1,.17,1.49.61.74.91,4.27-2.81,4.13-3.05-1.23-.16-1.95-.6-2.15-1.3.33-.22.81-.61,1.13-.87l.61-.19,2.74.88c.29-.02,5.14-2.3,5.2-2.59.05-.25-2.38-.53-2.98-.6l-.46-.63c.62-.37,1.37-.56,2.05-.83,1.65.13,3.31.32,4.96.59.42.07,2.81-.9,2.75-1.04-.07-.18-2.91-.57-3.44-.49l-.57-.53c.07-.48.69-.24,1.15-.35l2.06-.49Z"/>
  <path class="st1" d="M6.48,41.2c1.24-.66,2.56-1.17,3.71-1.99,4.88,1.52,9.11,1.92,14.32,3.51-1.55.91-3.1,1.65-4.81,2.38l-12.68-3.38c-.32-.08-.49-.31-.55-.51Z"/>
  <path class="st15" d="M57.46,24.07c.16.73,1.08,4.36.54,4.78-2.15.53-4.03,1.79-6.27,2.63l-.89-4.56,5-2.31c.57-.26,1.06-.6,1.61-.54Z"/>
  <path class="st23" d="M51.18,13.99c1.08.8,1.87,1.9,2.83,2.83.03.19.27.53.18.76-1.71.91-3.41,1.71-5.24,2.45-1.06-1.46-2.05-2.55-3.45-3.89l4.46-1.95c.43-.19.87-.18,1.22-.19Z"/>
  <path class="st10" d="M56.82,45.77l-16.54,8.93c-.82.44-1.3.53-2.01.24,0-.42.26-.6.68-.83l17.73-9.55c.28.38.06.82.14,1.2Z"/>
  <path class="st0" d="M58.28,38.62c0,.18-.22.35-.25.53l-5.38,2.39-.02-3.99,5.52-2.59c.29,1.3.13,2.48.13,3.65Z"/>
  <path class="st0" d="M17.64,15.98c1.57-1.26,3.39-2.1,5.11-3.12,1.65.19,3.28.32,5.03,1.08l-6.73,3.34-2.56-.74c-.41-.12-.67-.35-.85-.56Z"/>
  <path class="st11" d="M55.12,18.5c.43.67,2.28,4.08,1.78,4.87-1.2.14-2.17.95-3.56,1.34-.66-1.57-1.11-2.99-2.06-4.56,1.25-.77,2.49-1.51,3.84-1.65Z"/>
  <path class="st21" d="M49.63,13.08c-.8.56-2.44,1.66-3.45,1.46-2.22-.8-4.13-1.96-6.61-2.47l2.99-1.53c1.53-.35,5.72,1.74,7.08,2.54Z"/>
  <path class="st16" d="M13.05,20.59c1.21-1.22,2.02-2.79,3.47-3.74l3.59,1.17c-1.82,1.11-2.87,2.61-4.39,3.84-.62.5-2.55-.55-2.67-1.26Z"/>
  <path class="st5" d="M58.55,30.57c.07,1.25,0,2.3-.26,3.45l-3.63,1.46c-.26-1.43-.26-2.67-.38-4.11l3.77-1.77.49.96Z"/>
  <path class="st20" d="M24.81,12.02l3.7-1.47c1.93-.21,3.92.36,5.8.96-1.63.49-2.91,1.49-4.38,1.67-.41.05-5.62-.66-5.11-1.17Z"/>
  <path class="st32" d="M41.66,10.01l-3.62,1.68c-1.5-.8-5.98-1.28-6.33-1.96l3.09-.69c2.32-.52,4.66.45,6.86.97Z"/>
  <path class="st24" d="M58,42.05c0,.56-.26,1.05-.61,1.47-1.28.32-2.29,1.12-3.62,1.7-.12-1.09-.15-2.06.03-3.1,1.4-.84,2.76-1.43,4.18-2.05.06.76.01,1.36.02,1.98Z"/>
  <path class="st2" d="M11.07,24.53c.43-.82.83-1.68,1.17-2.54,1,.05,2,.4,2.98,1.09l-1.73,3.42c-.63.25-1.9-.32-2.34-.83-.3-.35,0-.9-.08-1.14Z"/>
  <path class="st19" d="M13.3,27.71c.52.29.34,1.16-.29,1.12-.56.81-.11,1.76-.63,2.79-.6-.15-1.77-.23-2.08-.86s-.2-1.6-.1-2.19.32-1.09.29-1.71c1,.07,1.84.66,2.81.85Z"/>
  <path class="st4" d="M19.74,40.11c.74-.28,1.48-.54,2.13-.99.36-.25,1-.25,1.58-.1l15.05,3.87c.4.56.23,1.52-.05,2.3l-18.28-4.53c-.33-.08-.49-.36-.43-.55Z"/>
  <polygon class="st24" points="43.45 47.39 38.25 50.31 29.25 47.72 34.22 45.07 43.45 47.39"/>
  <path class="st34" d="M52.47,25.09c-1.98,1.05-3.85,1.86-5.88,2.61-.77-1.66-1.62-3.04-2.69-4.48l6.43-2.75c.76,1.47,1.44,2.71,2.14,4.63Z"/>
  <path class="st18" d="M48.04,20.29c-1.54,1.07-3.19,1.56-4.94,2.34-1.44-1.52-2.89-2.56-4.72-3.81l6.01-2.37c1.35,1.03,2.44,2.17,3.65,3.84Z"/>
  <path class="st19" d="M32.77,44.76c-1.57.91-3.34,2.1-5.07,2.54-2.18-.37-4.36-1.04-6.35-1.93,1.63-.67,3.07-1.95,4.6-2.13,2.26.06,4.35.92,6.82,1.52Z"/>
  <path class="st28" d="M37.21,18.41c-3.66-1.63-7.19-2.42-10.94-2.65,1.2-.92,2.55-1.27,3.95-1.63,3.5.5,6.71,1.33,10.01,2.75-.9.66-1.81,1.01-3.03,1.53Z"/>
  <path class="st22" d="M41.67,16.62c-3.02-1.65-6.13-2.14-9.53-3.06,1.23-.57,2.68-1.26,3.95-1.51,2.95.63,5.71,1.57,8.6,2.85-.74,1.02-1.88.86-3.02,1.72Z"/>
  <path class="st9" d="M53.68,35.91l-4.93,2.46c-.31-1.47-.34-2.77-.44-4.27l4.98-2.24.39,4.05Z"/>
  <path class="st7" d="M29.09,18.23l.27.32c-.51.06-.79.55-1.16.83-.61.46-.29,1.16-.39,1.96-.04.28-.45.54-.37.77.09.26.32.41.5.64-2.52,1.05-1.03-.67-3.16.93-.32-.15-.28-.64-.04-.96-1.14-.05-1.4-2.62-1.29-2.75.19-.21.6-.1.74-.5-.59.26-1.06.23-1.67-.08.03.73,1.52,3.7,1.01,3.72l-.47.02c-.21.06-.54.13-.62,0-.43-.67-1.44-2.82-.79-3.35-.11-.25-.39-.34-.59-.54.48-.28.83-.07,1.15-.15.95-.87,2.16-1.23,3.61-1.09.96-.06,2.46-.02,3.29.26Z"/>
  <path class="st1" d="M19.85,26.3c-.86.7-1.21,1.83-2.02,2.81l-3.31-2.03c.46-1.56,1.26-3.08,2.47-4.34.62.38,3.1,3.16,2.85,3.56Z"/>
  <path class="st13" d="M21.63,19.76l1.41,3.35c.12.29.2.88.56.87-.64.79-1.81.67-2.51,1.38-.93.39-2.48-2.57-3.15-3.49,1-1.09,2.23-2.16,3.69-2.11Z"/>
  <path class="st3" d="M45.7,28c-.8.62-1.65.87-2.51,1.36l-3.04-4.4c.86-.53,2.01-1.4,2.83-1.13,1.45.83,1.86,2.55,2.72,4.16Z"/>
  <path class="st26" d="M39.41,24.25c-.11.25-.21.25-.31,0-1.1-1.25-2.46-2.19-3.99-3.06.74-.59,1.71-1.31,2.57-1.37,1.72.5,3.04,1.81,4.42,3.01-.95.68-1.8,1.03-2.68,1.42Z"/>
  <path class="st17" d="M52.49,45.58c-1.09,1.22-2.84,1.55-4.31,2.51-.26-1.18,0-2.23.19-3.41l4.45-2.09c-.12.85.32,2.26-.33,2.99Z"/>
  <path class="st35" d="M48.23,33.08l-1.3-4.45c1-.48,1.78-.86,2.91-1.24.52,1.45.86,2.96.78,4.56-.77.45-1.31.71-2.39,1.13Z"/>
  <path class="st18" d="M47.44,33.89c-.87.61-1.59,1.01-2.55,1.29-.17-1.78-.61-3.25-1.28-4.85.71-.66,1.49-.98,2.42-1.26.78,1.46,1.06,2.98,1.41,4.82Z"/>
  <path class="st29" d="M47.56,40.11c-.21.82-1.62,1.16-2.24,1.31l-.35-5.08c.84-.48,1.54-1.06,2.58-1.14.11,1.65.43,3.22,0,4.91Z"/>
  <path class="st30" d="M38.3,53.62c-.49-.66-.39-1.89.28-2.36,1.81-1.27,3.71-2.06,5.63-3.08.24.78.17,1.5-.12,2.2l-5.79,3.23Z"/>
  <path class="st26" d="M48.44,43.51c0-1.28-.05-2.82.31-4.06.82-.66,2.06-.96,2.92-1.29.15,1.45.05,2.55,0,3.86-.97.57-1.64.98-3.23,1.49Z"/>
  <path class="st33" d="M29.09,18.23c-1.41,1.01-2.45-.35-6.9.83,1.33-3.12,5.39-2.54,8.37-1.96-.64.41-1.02.81-1.47,1.13Z"/>
  <path class="st14" d="M29.36,18.55c2.2-.24.52-2.26,7.24.47-.57.51-1.49,1.5-2.31,1.44-.96-.46-5.32-1.51-4.93-1.92Z"/>
  <path class="st31" d="M47.71,41.49c-.37,3.1.51,4.28-2.57,5.33-.06-1.5,0-2.84.14-4.26.88-.37,1.47-.86,2.43-1.07Z"/>
  <path class="st27" d="M45.25,49.68c-.12-.69-.08-1.31.12-1.95.72-.32,1.32-.57,1.93-1,.2.63.14,1.17.03,1.82-.63.47-1.21.81-2.08,1.13Z"/>
  <path class="st28" d="M44.78,41.92c-1.85.2-3.65-.35-5.32-1.13,1.83-.04,3.53.32,5.32,1.13Z"/>
  <path class="st28" d="M34.54,21.28c.66.07-1.4,5.17-1.04,4.64-.09.13-.72-.04-.64-.2.71-1.45.6-3.05,1.69-4.44Z"/>
  <path class="st28" d="M39.1,24.25c.09-.02.23.04.31,0,.14.94-2.55,3.79-3.16,3.61l2.85-3.62Z"/>
  <path class="st28" d="M44.32,35.83c-1.47.4-3-.02-4.57-.29-.3-.06-.19-.45.03-.54,1.46.34,2.89.09,4.54.83Z"/>
  <path class="st18" d="M42.61,29.9c-1.38,1-2.71,1.4-4.2,1.36,1.36-.9,2.79-1.47,4.2-1.36Z"/>
  <path class="st28" d="M28.2,19.37c.71-.71.83,5.09.27,4.86-.6-1.77-.05-3.3-.27-4.86Z"/>
  <path class="st9" d="M16.72,34.57c.79,1.75.27,3.8.62,5.68-1.33-.3-2.86-.5-4.14-1.26.03-1.85-.09-3.46.15-5.29l3.36.87Z"/>
  <path class="st6" d="M10.21,35.73c-.05-1.5-.09-2.49.02-3.74.57.14,1.88.2,2.09.86.36,1.13-.02,2.33-.06,3.37-.92,0-1.42-.4-2.06-.49Z"/>
  <path class="st12" d="M10.42,38.57l.05-1.75c.56.08,1.34.08,1.77.54.34.36.13,1.16.03,1.57-.84-.13-1.28-.44-1.86-.35Z"/>
  <path class="st7" d="M25.63,24.61c-.63,1.33-1.94,2.26-2.36,3.68-.23.3-.4.69-.5,1.17-1,2.81-1.05,5.88-.6,8.82-.13.27-.23.55-.3.84.2,1.04-1.4,1.55-2.13.99-.48.18-.74.69-1.15.77-.66.12-1.03-.17-1.25-.63l-.63-.35c.02-1.61-.11-3.19-.38-4.75l.39-.58c-.08-.2.14-.57.21-.77l-.41-.64.42-3.04-2.38-1.39c-.15.76-.48,1.2-.97,1.32-.11.07-.46.18-.51-.04-.12-.51-.06-.85-.08-1.19.19-.28-.03-.86.29-1.12.44-.15.74-.58,1.23-.63l.51-.36,2.62,1.61,1.53-2.19.67.16c.4-.33.87-.57,1.24-.94-.24-1.08,1.65-1.6,2.51-1.38.06-.07-.06-.29-.03-.38.13-.33.26-.26.34,0,.03.09.13.33.25.4.77.47,1.48-.31,2.38.12-.37.2-.74.11-.92.48Z"/>
  <path class="st3" d="M16.93,33.8c-1.14-.37-2.31-.71-3.53-1.27-.02-.93.11-1.71.19-2.48.07-.7.3-1.38.6-2.2l3.37,1.97c-.22,1.41-.22,2.74-.64,3.98Z"/>
  <path class="st18" d="M23.27,28.3c-.12.43-.36.77-.5,1.17,1.03-1.64-3.67.52-4.18.04.75-.45,4.39-1.73,4.68-1.21Z"/>
  <path class="st28" d="M21.71,32.9c-1.23.86-2.57,1.36-4.02,1.2,1.41-.63,2.6-1.36,4.02-1.2Z"/>
</svg>