<?xml version="1.0" encoding="UTF-8"?>
<svg id="Layer_1" xmlns="http://www.w3.org/2000/svg" version="1.1" viewBox="0 0 1064.07 532.73">
  <!-- Generator: Adobe Illustrator 30.6.0, SVG Export Plug-In . SVG Version: 2.1.4 Build 109)  -->
  <path d="M862.91,237.87c4.19-10.94,16.26-30.72,25.73-34.62,18.24-7.51,45.43-2.52,39.12,11.04l-32.62,70.2c-7.84,16.86-11.27,47.47,3.85,46.43,13.65-.94,26.94-22.58,33.05-36.54l38.26-87.4c6.95-15.88,31.98-19.72,48.94-14.09,4.69,1.56,7.59,6.34,5.38,11.31l-34.06,76.7c-5.36,12.08-5.19,32.63,5.27,37.22,18.7,8.2,39.59-34.16,48.77-52.03,2.11-4.11,6.3-7.47,11.23-6.37,5.38,1.21,9.42,7.75,7.91,13.55-10.73,41.31-36.47,103.23-74.99,122.94-8.99,4.6-20.18,5.63-29,.31-8.1-4.89-13.63-12.94-17.44-21.51l-6.56-21.99c-10.76,20.02-22.67,39.57-41.44,52.63-15.63,10.87-35.6,7.26-47.33-7.46-6.91-8.68-10.5-18.69-13.17-30.15-10.6,18.93-25.56,41.14-44.94,50.08-13.78,6.36-28.33,2.62-37.7-9.17-8.59-10.81-12.9-23.58-15.43-38.01-11.89,23.27-26.19,51.43-51.43,59.74-30.26,9.97-51.01-18.55-58.36-48.51-18.29,30.9-49.91,62.45-87.02,66.03-34.32,3.32-60.05-16.66-69.81-49.68l-16.31,26.75c-7.2,11.82-17.09,21.67-28.6,29.19-16.05,10.48-36.32,5.98-46.52-9.92-6.89-10.74-9.94-22.36-12.13-35.57l-11.47,22.56c-6.27,12.33-15.15,22.51-25.63,31.22-17.02,14.16-40.23,12.42-54.85-4.33-8.24-9.44-12.68-20.83-16.79-33.58-22.82,36.62-51.2,70.84-89.24,91.25-27.22,14.61-58.13,20.23-88.54,14.28-22.05-4.31-41.59-15.31-54.77-33.37-29.55-40.5-28.61-97.98-15.81-145.34,21.82-80.73,68.62-160.62,130.41-217.26,31.68-29.03,71.04-53.25,114.87-51.38,27.23,1.16,48.59,18.93,54.18,45.5,10.85,51.64-20.63,113.07-55.71,150.96-16.54,17.87-43.75,31.17-65.63,19.28-16.05-8.73-20.76-28.84-9.67-43.47,4.02-5.3,8.92-9.63,14.26-13.7,30.77-23.42,55-53.52,67.56-90.34,1.72-5.05,2.16-10.58,1.26-15.81-1.33-7.74-7.83-12.75-15.64-12.64-18.22.26-43.07,19.38-56.87,33.27-49.13,49.44-84.51,110.61-102.7,177.97-8.11,30.05-12.66,68.32,1.87,95.4,10.57,19.7,30.62,29.55,52.82,26.39,19.49-2.78,37.53-10.55,53.64-22.38,17.09-12.55,31.58-27.45,44.77-44.05,10.27-12.92,18-26.59,24.28-41.77,13.33-32.25,28.57-62.05,57.47-82.47,25.17-17.79,59.73-21.93,75.25,6.79l1.5-1.22c2.47-5.34,4.64-11.91,10.14-14.77,18.83-9.8,51.53-4.74,44.44,10.57l-28.44,61.35c-6.89,14.87-10.31,43.32,2.26,49.29,4.85,2.3,10.22,1.48,14.52-1.6,18.64-13.35,27.85-36.48,35.88-57.97,11.45-30.62,30.42-61.28,58.64-78.36,16.6-10.05,35.86-14.19,54.87-9.72,8.86,2.08,17.65,6.86,21.77,15.32,11.6,23.87,6.14,53.68-12.99,71.71-9.62,9.07-23.08,11.07-34.19,5.68-7.37-3.58-12.02-10.06-12.39-17.45-.4-7.94,4.07-15.11,11.36-19.18,10.15-5.66,19.28-14.14,14-23.06-9.66-16.34-58.91,32.79-54.83,91.31,1.08,15.53,13.3,26.63,28.5,26.4,13.1-.2,25.49-4.02,36.3-11.79,18.47-13.28,34.58-30.91,43.57-52.05,7.2-16.91,12.68-33.26,22.33-48.83,16.76-27.02,44.95-54.29,77.18-54.58,15.33-.14,28.35,8.11,35.53,22.11,3.67-5.56,4.4-12.82,9.68-16.16,13.85-8.76,32.21-8.04,46.65-.95,2.98,4.78.53,10.19-1.91,14.73-11.35,21.12-21.87,42.03-28.9,64.94-4.4,14.33-6.09,35,5.58,40.35,4.77,2.18,9.97,1.43,14.3-1.4,18.25-11.92,30.35-40.51,38.37-61.47l14.28-37.32ZM701.46,349.46c22.83-13.77,55.84-85.18,38.97-98.19-10.57-8.15-24.71.9-33.94,12.81-12.71,16.41-20.87,35.66-24.56,56.24-1.94,10.82-1.53,23.57,6.64,29.27,4.68,1.55,8.07,1.2,12.89-.13ZM347.15,372.49c12.67-17.83,21.48-37.77,26.79-59.1,1.53-6.14,1.35-12.81-.37-18.46s-6.12-8.57-11.68-8.62c-6.49-.06-12.33,2.56-16.8,7.36-17.28,18.56-29.05,41.52-32.99,66.71-1.7,10.87-.44,25.04,7.59,27.91,10.14,3.63,20.49-5.98,27.47-15.8Z"/>
  <path d="M758.75,142.07c16.8-2.49,28.04-18.06,35.93-33.01.92-1.75,3.85-3.23,5.4-2.79s4.18,3.53,3.79,5.06c-6.53,25.44-24.54,56.59-50.54,61.33-15.78,2.88-29.15-5.61-34.14-21.4-5.36,8.63-9.6,15.97-16.26,22.02-6.41,5.83-16.08,7.94-22.55,1.63-4.94-4.82-6.86-11.72-8.83-18.86-4.53,9.04-9.16,18.32-17.55,24.17-9.41,6.56-21.66,4.39-27.58-5.44-4.53-7.52-5.86-16.38-5.52-25.52.75-20.31,8.56-39.69,22.28-54.54,11.25-12.18,30.98-19.63,41.96-4.66l32.05-79.36c4.31-10.67,23.27-13.9,33.05-7.26l-8.28,18.97-20.36,37.63c-8.92,16.49-15.98,33.29-21.93,51.04-4.49,13.4-6.58,30.75,3.16,28.88s16.17-18.29,20.19-29.48c7.93-22.06,29.17-43.14,51.71-38.92,7.46,1.4,12.52,7.31,12.93,14.97,1.23,22.96-21.43,41.47-44.53,45.49,1.69,6.87,8.4,11.12,15.64,10.05ZM764.58,87.27c-9.88,2.98-18.41,19.25-21.54,31.39,27.64-8.51,30.95-34.23,21.54-31.39ZM676.51,110.02c.81-3.1.2-8.05-1.84-10.33s-7.39-2.04-9.57-.13c-18.1,15.97-22.7,43.68-14.12,46.21,9.8,2.89,21.92-21.9,25.53-35.75Z"/>
  <path d="M473.35,63.37c-12.85,21.4-23.4,42.55-31.82,66.47,32.36.25,65.67-38.85,62.68-70.61-1.32-14.04-12.36-23.53-26.32-24-16.01-.54-30.88,4.9-43.61,14.52-16.07,12.14-31.13,33.2-21.01,51.27,2.53,4.52,1.1,9.73-2.95,12.85s-9.11,4.45-14.39,4.66c-9.74.38-17.92-5.45-20.19-15.08-4.93-20.94,7.62-42.27,23.47-56.91,25.11-23.21,58.96-34.14,93.1-30.55,11.52,1.21,21.75,6.16,30.12,13.88,18.37,16.94,15.8,45.93,3.41,67.55-19.45,30.94-54.48,53.13-91.56,50.99l-16.09,54.17c-1.09,3.66-2.35,8.45-5.07,10.86-12.14,10.78-34.6,8.87-31.24-1.14,5.55-16.55,11.61-32.18,18.61-48.42l42.98-99.77c7.03-7.96,17.67-10.11,27.56-6.86,1.91.96,3.72,3.77,2.32,6.12Z"/>
  <path d="M554.62,82.14c-1.39.42-4.34-.82-5.44-1.72-1.25-1.02-2.07-5.54-.77-6.6,10.93-8.88,20.27-19.18,27.36-31.58,1.34-2.35,5.06-3.55,7.45-2.27,4.89,2.62,8.43,6.51,10.73,11.47,1.72,3.7.27,7.73-2.65,10.35-10.67,9.57-22.71,16.16-36.68,20.35Z"/>
  <path d="M568.56,155.95c14.12-12.48,17.12-28.21,22.55-27.08,1.71.36,4.85,3.68,4.39,5.54-6.36,25.42-24.31,56.12-50.5,61.01-15.09,2.82-28.68-5.08-33.6-19.61-10.56-31.17,16.42-82.96,50.36-82.2,9.6.21,17.26,6.58,17.64,16.41.86,21.99-21.89,41.38-44.61,44.25,1.25,6.51,6.66,10.66,13.24,10.59,7.61-.08,14.69-3.74,20.54-8.91ZM535.38,141.55c11.62-3.77,18.69-10.9,24.06-19.77,1.61-2.92,2.81-8.73.09-10.65-8.17-5.77-22.35,17.56-24.14,30.43Z"/>
</svg>