<?xml version="1.0" encoding="UTF-8"?>
<svg id="Layer_1" xmlns="http://www.w3.org/2000/svg" version="1.1" viewBox="0 0 640 360">
  <!-- Generator: Adobe Illustrator 30.1.0, SVG Export Plug-In . SVG Version: 2.1.1 Build 136)  -->
  <path d="M258.92,316.51c14.32-11.83,49.59-21.52,67.69-25.12l43.15-8.59,37.7-6.34,76.99-10.92,12.08-1.7c12.2-1.72,24.09-3.67,35.87-7.3,10.63-3.28,20.4-8.74,26.7-17.83,4.28-6.18,6.1-14.6,2.02-20.64-2.29-3.4-10.88-12.47-13.94-10.64-1.75,1.05-6.02,14.48-10.92,21.09-5.86,7.9-14.73,12.97-24.15,14.18-6.65.86-11.88-1.83-15.52-7.9-6.46,9.99-16.89,16.35-28.38,13.75-6.59-1.49-10.48-7.93-11.49-14.33-1.95-12.31-1.83-10.45-.45-22.72.35-3.09.98-6.21,1.66-9.14,3.14-13.53,8.04-26,16.14-37.26,6.38-8.87,14.59-16.32,25.47-18.43,5.63-1.09,10.81.86,14.38,5.01,4.25-8.63,17.85-11.26,21.38-5.41,1.4,2.32.48,6.47-.2,9l-10.21,38.11c-1.22,4.54-5.91,20.18-2.63,23.34,3.47,3.35,8.36-4.62,9.91-7.95l6.93-14.79c.86-1.84,2.69-4.9,4.54-5.4,6.83-1.82,12.52,1.51,17.32,5.65,5.1,4.41,8.12,9.58,10.34,15.92,1.53,4.35,2.79,8.54,3.29,13.29,1.42,13.44-5.06,26.06-15.81,34.15-21.19,15.95-47.49,20.29-73.05,25.24l-33.68,6.53-27.97,5.34c-24.4,4.66-47.91,10.84-71.25,19.47-15.86,5.86-30.41,13.14-43.81,23.34-2.65,2.02-6.54.22-8.69-1.63-19.06-16.42-40.87-4.58-43.45-13.46-.46-1.58.28-4.43,2.04-5.89ZM488.44,222.71c2.25-1.84,4.62-4.55,5.83-7.22,4.97-10.89,8.25-22.04,10.88-33.84.78-3.5,2.11-8.73.02-11.55-1.96-2.66-6.89-.57-8.82,1.42-9.55,9.85-14.82,23.47-16.91,37.06-.69,4.51-1.29,9.04.79,13.04,1.58,3.05,5.26,3.49,8.21,1.08Z"/>
  <path d="M334.29,250.84c7.24-6.32,9.63-29.96,25.09-26.09,3.41.85,6.36,4.64,4.57,8.29l-4.43,9.04c-.93,1.9-.04,5.62,1.9,6.38,3.6,1.41,7.14.27,9.78-1.99,5.75-4.92,4.23-15,1.31-19.04l-13.79-19.08c-3.81-5.28-4.92-11.92-3.87-18.69,2.58-16.65,19.78-27.96,36.2-24.81,7.72,1.48,11.71,8.31,11.4,15.65-.28,6.57-1.89,13.51-7.83,16.88-2.49,1.41-5.29,1.45-7.45.07-5.62-3.61-1.35-9.22-2.56-13.56-3.15-1.49-6.19.06-7.67,3.16-1.65,3.45-.74,8.08,1.49,11.61,7.87,12.43,14.74,17.43,18.55,30.97,2.47-6.32,5.26-11.32,10.96-14.06,4.03-1.94,9.15-1.73,11.79,2.32s-1.95,8.76-4.22,14.46c-1.24,3.11.83,6.3,3.78,6.78,5.64.92,9.77-3.18,10.96-8.39.54-2.36.9-4.58.09-6.78-1.02-2.79-1.92-5.81-3.59-8.1l-9.45-12.95c-3.88-5.32-7.7-11.79-7.52-18.82.47-18.7,18.4-31.96,36.44-28.97,5.43.9,9.8,5.23,10.8,10.18,1.79,8.78-1.02,21.78-8.45,23.07-3.47.6-7.02.18-8.78-3.1-1.6-2.96.14-7.06.69-10.6-1.19-1.51-4.2-1.39-5.82-.27-4.68,3.26-2.31,12.73-2.2,12.89,3.79,5.83,7.98,11.5,12.35,17.16,7.23,9.37,10.16,21.51,5.61,32.83-5.89,14.65-21.4,23.39-36.88,21.65-8.27-.93-14.51-5.52-17.58-13.84-5.55,15.66-19.78,24.68-36.24,24.29-6.34-.15-12.18-1.72-16.21-7.61-6.99,7.79-10.97,12.6-21.89,14.84-7.2,1.48-13.54-1.04-17.32-7.93-7.27,10.96-21.64,20.34-32.79,13.62-3.96-2.39-6.16-7.91-7.46-12.91l-.88-3.4c-1.43-5.49-.55-12.88.28-18.85,2.9-20.99,11.46-45.88,28.32-59.6,7.68-6.25,21.21-11.32,29.81-2.18,4.22-9.49,16.62-10.91,21.19-6.07,1.17,1.24,1.75,4.44,1.24,6.31l-10.79,39.53c-1.83,6.69-2.9,13.08-4.26,19.8-.36,1.79-.29,3.47.36,4.75.79,1.56,3.56,2.36,4.96,1.14ZM307.21,235.3c1.63-5.05,10.06-30.42,5.45-32.66-5.09-2.48-11.51,4.51-14.3,8.87-7.71,12.06-11.73,26.13-11.74,40.46,0,3.16,1.99,7.1,5.35,6.93,7.74-.38,13.22-17.34,15.24-23.59Z"/>
  <path d="M184.7,299.05c-6.19-.09-10.77-4.38-11.11-10.37-.44-7.47,1.32-14.02,3.23-21.19l11.67-43.89c.64-2.39,1.12-4.57-.03-7.23-9.54,14.59-17.39,29.36-23.32,45.61l-19.68,53.93c-3.14,8.6-12.51,13.6-21.17,12.2-3.73-.6-6.54-3.09-7.34-6.73-.87-3.97-.51-8.51.86-12.76l22.64-70.38c1.92-5.98,6.21-22.42,4.18-27.43-2.21-5.47-10.92.82-14.24-.32-1.52-.52-3.04-2.81-3.34-4.61-2.09-12.47,18.54-20.02,28.48-22.05,5.28-1.07,11.3,1.22,13.62,6.24,3.09,6.69,1.36,13.13,1.09,21.19l16.52-24.09c5.3-7.73,19.81-19.65,29.18-12.95,9.71,6.94-1.32,29.68-1.81,39.95,9.84-13.29,18.91-29.05,35.58-33.71,5-1.4,11.9-.67,14.85,4.29,3.32,5.57,2.45,12.65.89,18.84l-10.91,43.2c-3.33,13.21-4.75,26.28-2.9,39.59.82,5.87,4.06,10.02,8.47,14.36-11.43,3.43-20.75,8.12-30.2,14.71-6.81-10.83-6.77-29.68-5.73-41.89.19-2.24.35-5.15.83-7.27l8.85-39.19c.57-2.51,1.18-4.81-.34-7.3-14.23,19.11-23.97,44.42-31.75,66.4-2.69,7.61-7.94,12.95-17.07,12.82Z"/>
  <path d="M125.25,246.68c2.78,4.95-6.38,30.52-24.44,30.81-3.62.06-6.81-1.8-8.79-4.79-5.03,5.82-12.3,12.39-19.82,8.4s-7.79-15.97-6.3-23.57c2.98-15.14,9.63-35.91,25.94-41.34,4.04-1.35,8.34-.05,10.91,3.02,3.3-5.32,9.7-6.34,12.38-3.58,1.24,1.28,1.4,3.94.86,5.85-3.44,12.08-6.61,23.84-9.36,36.12-.18.8.35,2.63.74,3.25s2.82.35,3.38-.14c5.64-4.92,4.4-12.43,9.86-15.91,1.29-.82,4,.76,4.63,1.88ZM84.85,265.08c7.01-3.35,9.74-18.59,11.9-26.58.8-2.96.95-5.61-1.2-8.08-2.78.38-4.79,1.77-6.32,4.06-5.33,8.02-8.26,16.99-8.56,26.76-.05,1.81,2.22,4.77,4.17,3.84Z"/>
  <path d="M83.05,194.53c.09-3.83.13-7.66,1.31-11.08l21.48-62.54,6.84-22.11c2.93-9.46,4.5-18.64,4.03-28.64-.15-3.19-1.41-6.11-5.33-6.15-10.8-.12-23.39,15.98-21.91,30.54.37,3.7,2.45,6.48,5.6,8.03,2.51,1.23,3.53,4.57,2.29,7.45-3.99,9.28-16.32,13.23-24.75,7.18-3.87-2.78-5.17-7.75-6.3-12.02-1.6-6.03-1.4-11.67.13-17.78,4.45-17.84,15.97-33.09,32.13-41.76,13.32-7.14,35.44-10.91,41.28,6.54,3.45,10.31-.26,13.61.87,22.38,6.42-10.83,12.12-21.31,19.94-30.89,4.89-5.99,14.43-12.73,22.09-9.15,12.85,6,2.07,27.12,2.95,36.69,8.09-13.41,15.78-26.21,25.8-38,6.17-7.26,19.13-15.85,27.95-9.16,3.52,2.67,6.45,8.01,5.14,13.01l-4.52,17.32c-4.68,17.92-20.25,65.45-20.84,82.18l-.65,18.38c-.21,6.03-6.93,8.38-12.05,9.73s-11.91,1.01-14.38-4.74c-5.07-11.8,6.1-49.29,10.14-63.08l6.92-23.62c.09-.31.02-1.25.03-1.52,0-.39-1.74.24-2.24,1.03-16.91,27.11-27.79,56.58-39.03,87.53-3.14,8.65-12.11,13.57-20.88,10.96-9.38-2.79-7.35-15.96-5.28-23.07l17.38-59.83c.18-.6,2.38-9.17.34-8.07-4.32,2.33-22.48,42.49-25.21,49.99l-21.74,59.76c-3.31,9.1-11.07,13.93-20.48,13.7-5.19-.12-9.21-3.24-9.07-9.17Z"/>
  <path d="M295.49,141.25c2.96,1.55,6.26-1.62,7.34-3.78l6.01-12.1c3.4-6.84,12.6-13.28,17.92-8.23,6.68,6.33-4.34,14.5-2.77,19.99.34,1.18,1.97,3.05,3.32,3.36,5.52,1.29,10.37-2.19,11.56-7.43,1.25-5.52-.01-11.05-3.36-15.63l-9.15-12.54c-4.01-5.5-7.34-12.36-7.26-19.54.21-19.17,18.59-32.85,36.92-28.86,6.06,1.32,9.84,6.38,10.61,12.2.96,7.29-.92,14.91-6.78,19.72-2.01,1.65-6.74,1.17-8.71-.16-5.34-3.62.43-11.18-2.29-12.79-1.6-.95-3.99-.19-5.27.73-4.42,3.18-1.92,12.47.42,15.55l9.68,12.78c3.74,4.93,5.82,10.12,7.74,16.36l3.6-6.42c4.42-7.88,13.51-11.13,17.92-6.46,1.67,1.77,2.18,4.96,1.14,7.26l-4.47,9.87c-1.15,2.54,1.02,4.84,3.48,5.42,5.61,1.33,10.99-2.74,11.86-8.61.63-4.24-.32-9.12-2.84-12.67l-10.26-14.41c-2.97-4.17-5.91-8.78-6.66-13.97-.45-3.12-.82-7.51-.05-10.63,3.71-15.01,18.39-24.86,33.42-23.68,8.97.7,14.54,7.86,14.16,16.43-.33,7.55-3.48,17.95-11.91,17.53-4.61-.23-7.04-4.33-6.11-8.43.45-2,.32-4.45.09-6.28-3.6-1.09-6.5.65-7.72,4.2-1.04,3.03-.92,7.42,1.11,10.36l14.54,21.11c7.57,11,5.79,25.37-2.36,35.91s-21.43,15.4-34.34,13.35c-7.52-1.2-12.15-5.94-15.53-13.34-3.19,8.54-8.15,14.27-15.4,18.44-11.61,6.68-27.48,8.67-37.41-2.99-6.1,7.29-13.48,12.84-22.85,13.98-6.74.81-11.74-2.35-15.09-8.58-7.57,11.33-26.5,21.7-36.38,10.23-5.5-6.38-5.79-18.17-5.13-26.19.25-3.03.24-6.09.75-8.93,3.77-20.91,14.05-48.56,33.71-59.22,5.44-2.95,12.21-4.32,18.08-2.11,2.2.82,4.46,2.42,6.64,3.52,4.49-8.22,15.78-9.82,20.59-5.76,1.31,1.1,2.19,4.33,1.65,6.26l-12.27,44.08c-1.06,3.82-5.73,19.18-1.86,21.09ZM267.06,139.91c6.39-14.03,10.34-28.39,12.61-43.7.18-1.22-1.38-3.41-2.39-3.83-4.32-1.82-10.93,5.62-13.37,9.58-5.69,9.23-9.37,19.08-11.2,29.83-.78,4.6-1.37,12.33,2.21,15.68,3.15,2.94,10.3-3.51,12.14-7.55Z"/>
  <path d="M462.41,126.92c-4.69,5.63-8.98,10.01-14.96,13.1-3.01,1.56-6.44,1.54-9.75,1.81-8.13.67-14.44-3.75-16.3-11.85-4.65-20.32,1.28-46.37,11.33-64.55,6.7-12.11,17.34-25.05,32.36-25.45,4.49-.12,8.34,1.99,12.41,4.7,3.97-9.7,17.77-9.71,21.2-5.39,1.14,1.44,1.94,4.58,1.42,6.51l-12.02,43.85c-1.02,3.73-3.97,15.74-1.61,18.08.63.62,3.09,1.09,3.9.7,11.36-5.49,9.96-26.35,19.64-25.12,2.35.3,6.79,3.04,6.21,6.52-3.35,19.88-19.94,45.79-42.9,44.47-5-.29-8.37-2.73-10.93-7.37ZM459.36,105.82c2.54-6.59,13.91-39.67,8.89-43.49-3.86-2.94-10.35,3.44-12.96,7.56-7.13,11.25-11.21,24.16-12.16,37.51-.16,2.25,1.12,5.97,2.58,7.19,5.67,4.72,11.94-4.29,13.66-8.76Z"/>
</svg>