<?xml version="1.0" encoding="UTF-8"?>
<svg id="Layer_1" xmlns="http://www.w3.org/2000/svg" version="1.1" viewBox="0 0 212.56 180.05">
  <!-- Generator: Adobe Illustrator 30.6.0, SVG Export Plug-In . SVG Version: 2.1.4 Build 109)  -->
  <defs>
    <style>
      .st0 {
        fill: #2f62ae;
      }
    </style>
  </defs>
  <path class="st0" d="M64.4,129.63c-1.43,3.31-3.41,6.31-6.33,7.93l-8.17,4.53c-.84.47-.78,2.1-.31,2.95,3.89,7.2,4.94,15.01,3.56,23.12-.32,1.87-.82,3.71-.11,5.72,6.88-.84,6.48-17.43,3.83-23.95l-2.25-5.55,6.01-4.27c6.48-4.59,9.64-11.97,8.48-20.11l4.67,2.71c4.22,1.57,8.27,2.13,12.65,2.48l5.38.43c2.34,3.67,3.33,8.01,3.18,12.46l-5.33,1.64c-.75,1.12-.55,5.25,1.36,5.59,12.23,2.17,31.3-2.4,41.74-10.69-6.37-1.14-11.25-3.57-15.14-8.06-2.8-3.24-4.99-6.91-5.17-11.31-.43-6.02,2.43-11.39,7.66-14.08l1.77,2.33c5.2.1,9.16-3.87,9.06-9.2-.03-1.39-.56-2.93-2.02-3.32l-7.68-2.02c-3.35-.88-6.03-2.72-8.58-5.09-5.24-4.85-7.71-11.48-8.47-18.72-1.72,1.48-3.61,2.14-5.77,2.52-14.6,2.61-28.85-5.7-31.78-20.52-7.19,7.07-11.4,16.63-11.61,26.72-.06,2.84.88,4.23,3.52,5.07,5.26,1.66,7.28.57,12.17-2.96,4.01,7.83-7.61,11.01-5.09,15.67,1.56,2.89,5.61,3.47,6.37,4.93.95,1.83-6.63,1.81-10.4-1.89-2.95-2.89-1.7-6.95,1.74-9.8-2.95-.4-5.61-.11-8.34-1.54-1.8,2.18-1.63,4.86-1.81,7.57-.51,7.77,2.86,14.34,9.01,19.28-2.31.75-4.45.29-6.48-.45-10.82-3.99-18.15-2.37-21.72-5.01-1.63-1.21-3.51-2.81-4.51-4.61-4.55-8.23-1.88-18.03,5.55-23.48l4.4-3.23c-9.86-6.75-13.59-18.62-10.23-29.87s13.44-19.02,25.35-20.18c1.29-3.41,2.16-6.66,4.04-9.67,11.5-18.43,44.86-18.03,58.48-.34,4.09-1.71,8.99-2.1,13.1-1.89,18.06.94,29.8,14.82,33.11,32.09,7.91.36,15.36,3.36,20.37,9.67,6.95,8.74,8.33,20.46,3.97,30.93,11.11,1.89,19.99,9.93,22.43,20.82,1.89,8.48-1.06,17-7.84,22.44,7.15,4.41,11.17,12.25,10.27,20.85-.92,8.75-6.63,15.95-14.24,20.07-3.83,2.56-7.91,3.03-12.32,3.48-3.48.36-7.7,1.23-10.53-1.55-4.18-4.11-8.45-8.01-13.9-10.35-6.34-2.71-12.92-3.43-19.61-1.18-10.92,3.67-21.81,6.22-33.43,7.23l-20.73.22c-11.2,7.71-22.74,13.39-36.51,13.82-1.74.05-3.12-.61-3.56-2.49-.73-3.1-1.31-6.92-.42-10.16,1.74-6.4,1.87-12.94-1.93-18.79l-6.76,1.48c-1.68.37.98,5.41-1.5,9.2-.89,1.35-3.06,1.89-4.63,1.54l-12.71-2.79c-.6-.13-1.08-.94-.99-1.3s.82-.96,1.44-.94l8.87.23c1.16.03,3.8,1.1,4.41-.21.93-3.55-2.44-5.79-5.57-6.46-4.8-1.03-9.23-1.31-13.58,1.29-1.41.84-3.69,2.72-3.03,4.64,1.89,5.42,6.51,9.3,11.48,11.77,5.11,2.54,4.19,6.02,6.04,10.98-11.83-3.89-20.57-12.39-25.23-23.33-3.77-8.84-5.81-18.2.95-25.18,1.53-1.57-4.35-10.47-.19-15.15,3.38-3.8,8.68-2.25,12.11-3.99,2.61.75,5.25.95,7.67-.57l15.83.34c1.42.03,2.07,1.01,3.91.55,1.94-.49,4.66.9,6.61,1.34l.64,2.41c1.93.8,3.69.01,5.65-.11,3.81-.24,7.31,2.55,8.17,6.19.71,3,.84,6.12-.45,9.09ZM119.64,117.85c3.05,4.89,11.79,5.44,15.94.73,2.37-2.69,3.35-6.15,2.09-9.66-.89-2.48-3.9-5.03-6.39-3.47-1.59,1,4.45,4.49,1.96,8.93-1.93,3.42-7.97,3.07-10.2.13-1.21-1.6-1.02-3.26-.56-5.17.2-.84-.91-1.58-1.54-1.48-2.17.35-4.16,5.41-1.31,9.99ZM24.22,137.14c-2.89-6.42-4.51-11.97-5.19-18.26-1.72-1.05-5.52-.76-6.07,1.13.19,7.55,3.8,17.27,11.25,17.13ZM51.7,135.25c4.16-2,6.56-5.16,7.84-8.78.2-2.22-.29-4.3-1.89-5.25-1.19-.7-4.64-1.07-4.88.54-.14,4.77.08,8.92-1.07,13.49ZM8.86,137.41c.81-.9,1.21-1.82.58-2.54-.58-.67-1.77-1.06-2.53-.35-1.91,1.79-2.75,4.58-1.97,7.26l3.92-4.37ZM14.91,144.69c1.55-1.34,3.13-2.61,2.8-4.63-2.65-.58-4.92.72-6.98,2.13-2.77,1.9-4.14,5.08-2.35,8.16l6.53-5.66ZM93.75,161.38c13.98.3,27.32-2.02,40.01-6.75,1.77-.9,3.38-1.2,5.08-2.64-2.67-2.22-4.26-4.92-5.51-8.52-9.27,5.47-19.26,8.17-29.78,8.47l-11.45.33c-.79.5-.21,2.45-.13,3.23.24,2.22.19,4.16,1.79,5.88Z"/>
  <path class="st0" d="M21.33,107.86c-1.37.05-1.55-5.53-4-6.8l-8.02-4.14c-5.5-2.84-7.63-8.69-5.46-14.59,1.21-3.3,3.62-5.89,6.37-8.14l5.58-4.57c6.46-5.29,2.68-9.56,4.37-15.31,5.94,5.52,5.99,14.72-.46,20.18-2.81,2.37-5.42,5.16-6.94,8.46-1.72,3.73-1.05,7.9,2.12,10.33l6,4.62c2.83,2.18,3.67,6.04,1.82,9.14-.26.44-1.03.79-1.38.81Z"/>
  <path class="st0" d="M101.71,78.48c1.55,2.24-.07,4.35-1.61,5.9-5.45,5.48-15.11,5.36-19.62-1.44-.84-1.26-2.51-3.62-.97-5.01,2.04-1.84,6.81,5.58,13.82,4.66,2.93-.76,5.24-2.28,8.38-4.11Z"/>
  <path class="st0" d="M84.27,107.48c-5.02,3.82-13.01,3.34-14.2-2.15,6.05.63,11.43-.31,16.69-3.65.78,2.69-.72,4.46-2.49,5.8Z"/>
</svg>