<?xml version="1.0" encoding="UTF-8"?>
<svg id="Layer_1" xmlns="http://www.w3.org/2000/svg" version="1.1" viewBox="0 0 175.72 152.71">
  <!-- Generator: Adobe Illustrator 30.6.0, SVG Export Plug-In . SVG Version: 2.1.4 Build 109)  -->
  <defs>
    <style>
      .st0 {
        fill: #005aca;
      }
    </style>
  </defs>
  <path class="st0" d="M113.62,79.53c3.56-1.63,5.56-6.74,4.61-10.48-8.4-3.37-13.28-10.54-14.4-19.56-11.53,3.85-23.89-.95-27.38-13.09-4.1,2.61-7.85,8.3-9.37,12.77-1.47,4.32-2.07,8.67-2.33,13.25-.61,11.02,1.01,20.89,8.26,29.6-1.71,1.09-2.58,2.55-2.65,4.46-.07,2,1.11,3.82,2.44,5.26l3.28,3.52c-2.12.83-3.48,2.24-3.97,4.38-.36,1.56-5.62-.73-7.49-2.62l-1.46-1.46c-2.25-2.26-3.19-5.61-3.22-8.81,0-.79.49-1.55,0-2.35l-5.43-1.81c-4.93-2.22-8.85-5.86-11.03-10.78-3.95-8.93-.31-18.32,7.91-23.78-2.33-2.35-4.08-5.54-5.2-8.66-4.13-14.44,5.71-28.17,20.42-30.3C68.82,7.98,78.13,1.04,89.16.09c8.82-.66,16.43,2.53,21.86,9.63,12.03-4.38,24.35-.13,30.34,11.12,1.62,3.05,3.15,7.79,2.91,11.23,8.07.44,14.98,5.11,18.43,12.42,2.81,5.97,2.84,12.73.53,18.91l-1.45,3.25c6.88,2.44,12.19,8.2,13.57,15.42s-1.24,14.16-6.53,18.89c7.76,6.56,9.15,17.91,3.17,26.11-5.42,7.72-14.14,10.28-23.41,8.34-.08,5.07-.73,9.84-2,14.55-.25.94-1.67,1.23-2.35,1.04-.83-.23-1.5-1.09-1.34-2.12l1.45-9.34c.51-3.29-.1-6.49-.93-9.71-1.62-6.29-7.23-10.39-13.77-10.12-6.91.29-10.96,4.5-17.5,7.04-2.87,1.12-7.54,2.46-7.97.32-.12-.59-.03-1.72.74-1.91,3.57-.89,6.81-2.31,9.98-4.16l6.03-3.54c-2.39-2.98-3.36-6.46-3.31-10.19-6.5-1.1-11.38-5.79-12.53-12.25-.63-3.58.32-7.19,2.22-10.27,1.49-2.42,3.69-4.01,6.32-5.21ZM111.93,84.95c-1.78,3.11-.99,6.96,1.65,9.34,3.44,3.1,8.71,2.98,12.03-.22,2.67-2.57,3.41-6.43,1.79-9.7-1.28-2.59-3.93-3.46-4.8-2.17-.28.42-.4,1.39.06,1.79,1.31,1.15,2.11,2.67,1.86,4.46-.21,1.51-1.23,2.93-2.87,3.62-2.39,1.01-5.29.11-6.67-2.09-.76-1.22-.76-2.55-.17-3.79.41-.85.02-1.85-.81-2.18-.68-.26-1.54.01-2.07.94Z"/>
  <path class="st0" d="M116.04,147.69c-.02.58-.49,1.24-.89,1.45s-1.58.56-2.03.17l-9.54-8.37-4.61-4.64c-.83-.83-1.94-1.74-1.95-3.08-.04-3.67-.03-7.29-.82-10.92-.95-4.37-2.61-8.3-4.85-12.13-3.31-5.66-7.78-10.43-13.73-13.25-.52-.25-1.01-.32-1.34,0-.4.4-.19,1.04.17,1.42l3.43,3.61c.96,1.01,2.04,1.78,2.62,3.31-4.18-.78-6.28-2.28-8.76-5.66-1.1-1.49-1.43-3.61-.19-5.07,2.86-3.37,9.15.77,12.61,3.63,4.45,3.67,7.55,8.43,10.3,13.48.59-1.91,1.01-3.37,1.92-4.96l-2.02-.09c-.31-.01-.71-.84-.61-1.16.57-1.88,4.25-2.78,5.69-1.12.72.83.81,1.97.32,3.15-4.38,10.56-1.13,13.55-1.01,19.03l.14,6.07c4.3,4.59,8.71,8.71,13.45,12.67.82.68,1.75,1.18,1.7,2.48Z"/>
  <path class="st0" d="M74.27,126.4c.36.3.93-.32,1.2-.34.92.05,1.92.71,2.25,1.56l2.22,5.59c1.39,2.62,3.3,4.84,6.04,6.11.75.35,1.24.77,1.61,1.59l4.03,8.81c.48,1.04.2,2.19-.6,2.67-.98.58-2.34.39-2.82-.7l-4.03-9.06c-4.94-2.31-7.71-6.74-9.28-11.91-2.87-.7-4.81-2.95-5.2-5.9-.48-2.23.29-4.27,2.02-5.73-.5-2.54.5-4.85,2.69-6.18-.31-2.24.69-4.32,2.74-5.39,4.55-2.38,10.41.74,9.24,2.83-.41.73-1.2,1.03-2.01.71-2.78-1.1-5.85-1.47-6.54,1.29,3.09.26,7.04,2.51,5.81,4.02-1.42,1.75-3.21-.34-5.72-.48-1.51-.09-2.89.83-2.86,2.5,3.08.24,6.32,2.26,5.25,3.87s-2.99-.29-5.07-.4c-1.13-.06-2.04.6-2,1.79.03.9.26,2.09,1.05,2.75Z"/>
  <path class="st0" d="M51.91,148.77c-.45.89-1.81.85-2.38.56-.76-.39-1.19-1.47-.77-2.38,3.18-6.92,6.5-13.66,10.3-20.26,1.6-2.79,3.43-5.24,5.7-7.41.56-.54,1.16-.99,2.05-1.08.47,2.13-.58,3.89-1.65,5.59-3.8,6.07-6.87,12.39-10.11,18.78l-3.14,6.2Z"/>
  <path class="st0" d="M84.1,75.65c-.08,1.95-4.48,1.12-6.5-1.07-1.4-1.51-1.3-4.12.14-5.46l2.41-2.25c1.31-1.22,1.24-4.87,3.15-4.42,1.62.38.83,4.68-2.75,7.72-.59.5-1.04,1.39-.7,2.12,1.29,2.73,4.31,1.92,4.25,3.36Z"/>
  <path class="st0" d="M98.34,68.85c-.69.67-1.64.7-2.45.51-.72-.17-1.32-.73-1.66-1.69-1.15-3.28.56-7.18,3.19-6.95.69.06,1.39.52,1.82,1.27,1.25,2.17.99,5.02-.9,6.86Z"/>
  <path class="st0" d="M76.83,65.59c-.69.98-1.84,1.28-2.8,1.07-2.33-.52-2.77-4.46-1.23-7.14.57-1,1.62-1.41,2.71-1.21,2.47.45,3.13,4.7,1.32,7.28Z"/>
  <path class="st0" d="M79.5,53.88c-5.24-2.06-8.04,2.01-9.14.63-1.5-1.87,4.94-6.04,10.02-3.41.74.38.93,1.12.9,1.72-.04.68-.87,1.42-1.78,1.06Z"/>
  <path class="st0" d="M81.19,85.29l-2.33.48c-.48.1-.99-.04-1.22-.37-.72-1.04,1.06-3.04,3.65-3.1,4.37-.1,6.86,4.11,5.55,5.18s-2.52-2.16-5.65-2.2Z"/>
  <path class="st0" d="M17.24,123.47c-4.79-1.52-7.38,3.15-9.06.95-1.35-1.76,3.22-5.1,7.95-4.66.7.06,1.23-.04,1.53-.58.25-.46.26-1.02-.18-1.54-1.53-1.82-5.87-.78-8.62,1.12-.61.43-1.59.29-1.98-.13-1.53-1.66,1.86-4.86,7.19-5.35.64-.06.79-1.2.63-1.63-.17-.48-.76-1.21-1.55-1.22-5.06-.04-8.72,3.89-9.19,8.93-.61,6.46,2.39,12.77,7.82,16.37l4.26,2.82c1.33.88,3.13,4.33,2.62,5.7-.4,1.06-2.38-.28-3.9-1.53l-1.59-1.3c-3.14-1.98-6.13-3.95-8.4-6.91-6.13-8.03-7.28-20.82,2.11-26.11-.41-2.86-.88-6.02.84-7.38.82-.64,1.88-.93,3.17-.92l32.12.02c1.65,0,2.77,1.4,3.08,2.77l.1,3.06c4.59-.58,8.48,2.35,9.25,6.8.7,4.06-.67,7.94-3.54,10.91-2.51,2.59-5.85,3.85-9.5,4.28-1.57,3.56-3.99,8.15-7.6,9-4.42,1.04-13.11,1.09-17.3-.35-1.55-.53-2.56-2-3.18-3.44,1.02-1.44,3.61-1.47,3.4-2.41-.18-.85-1.27-1.1-2.02-1.06-2.17.12-4.13,2.47-5.35.61-1.04-1.58,2.12-4.32,7-4.03.68.04,1.06-.8,1.06-1.3,0-.63-.44-1.27-1.16-1.5ZM51.02,113.33c-.65-2.28-2.85-3.53-5.09-2.97l-.41,3.24c-.42,3.32-.84,6.49-1.72,9.73,4.62-1.16,8.43-5.74,7.22-10Z"/>
  <path class="st0" d="M29.34,22.01l3.22-2.94c2.36-2.15,2.96-5.6.79-8.11-1.37-1.58-3.65-2.21-5.6-1.87-3.48.6-5.57,3.23-5.61,6.65-.02,1.47-3.17,2.51-4.73,1.07-2.05-1.89-.05-10.41,7.6-12.59,3.74-1.07,7.99-.88,11.15,1.47,5.55,4.14,5.61,12.06.66,16.66l-2.87,2.48c-2.94,2.55-.98,5.11-2.06,6.57-.51.69-1.47.9-2.33.92-1.56.03-2.23-.82-2.55-2.14-.72-3.01-.06-5.99,2.34-8.18Z"/>
  <path class="st0" d="M22.4,77.47c-.83,2.45.53,3.77-.02,4.37-.95,1.04-5.26-2.39-4.25-6.56.28-1.14.67-2.49,1.51-3.29,5.13-4.91,1.35-9.95,2.34-10.66.85-.61,5.82,4.47,3.89,10.33-.76,2.3-2.6,3.26-3.47,5.8Z"/>
  <path class="st0" d="M18.45,96.11c-.45.34-1.01.32-1.33.18-1.08-.46,1.2-4.08-2.41-6.96-1.2-.96-2.38-2.12-2.97-3.54-1.94-4.69,1.44-9.51,2.75-8.78.93.51-.79,4.02,2.48,7.63l2.2,2.43c2.4,2.64,2.18,6.84-.73,9.04Z"/>
  <path class="st0" d="M34.77,38.74c-.09,2.23-2.01,3.37-4.09,2.99-1.66-.3-2.7-1.89-2.55-3.46s1.28-2.94,3.09-3.07c1.01-.07,1.95.2,2.64.88.62.61.96,1.5.91,2.67Z"/>
  <path class="st0" d="M29.48,87.16c1.66,4.18-2.31,7.89-3.73,7.51-1.5-.4.7-3.16.58-5.77-.09-2.06-1.37-3.37-1.27-5.07.09-1.47,3.24.37,4.41,3.34Z"/>
</svg>