<?xml version="1.0" encoding="UTF-8"?>
<svg id="Layer_1" xmlns="http://www.w3.org/2000/svg" version="1.1" viewBox="0 0 64 64">
  <!-- Generator: Adobe Illustrator 30.2.1, SVG Export Plug-In . SVG Version: 2.1.1 Build 1)  -->
  <defs>
    <style>
      .st0 {
        fill: #231f20;
      }
    </style>
  </defs>
  <path d="M30.3,47.7c-.39,3.9-1.52,8.11-5.46,9.02-4.34,1.18-9.39-2.47-9.4-7.26-.13-5.44,7.48-9.22,8.67-2.51.09.89-.62,2.04-1.56,1.62-.41-.17-.74.03-.95.28-.95,1.57-.64,3.94.76,5.1,1.73,1.42,3.09-1.23,3.24-2.82.67-4.35-.27-8.71-1.62-12.8-.22-.79-1.03-.24-1.55-.15-.95.25-1.17,3.06-2.41,1.77-.64-.94-.66-2.56.42-3.17,2.36-1.23,4.13-1.5,6.58-1.76,2.86.38,3.29,10.2,3.28,12.68Z"/>
  <path d="M6.81,31.09c-.18-1.98.94-11.81,3.76-12.04,1.41-.11,1.52,2.07,3.92,3.54,2.71,1.67,3.97,1.77,4.16,3.06.16,1.09,0,4.96-1.76,3.73-.54-.61-1.12-1.19-1.87-1.54-.9-.27-3.61-2.44-3.49-.36.06,1.06-.55,3.69,1.3,3.18.35-.08.58.02.76.33.47,1.04.51,2.37.09,3.43-.42.84-1.27-.11-1.87-.23-1.62-.3.28,3.99.94,4.39.16.13.95.36-.03,1.04s-1.65,1.34-2.58,2.35c-1,1.01-1.21-.68-1.26-1.35-1.28-3.06-2.24-6.17-2.07-9.53Z"/>
  <path d="M35.27,38.94c.18,1.71.42,3.42.84,5.09.07.32.3.25.55.21,2.16-.29,1.97,2.41.03,2.56-.76.26,2.15,4.22,2.32,4.98.59,1.41,1.73,3.41.03,4.69-1.79,1.09-5.65,1.36-7.71.91-2.28-.78,1.97-5.82.83-10.01-.07-.79-1.65.05-1.64-1.66.04-1.07,1.36-.52,1.32-1.19-.4-2.12-1.32-4.2-.69-6.39.67-3.08,4.4-4.15,7.16-3.6,3.45.57,5.88,5.1,1.68,6.56-2.67.4-2.52-1.86-3.1-3.82-.3-.58-.84-.6-1.2-.06-.39.5-.32,1.24-.43,1.76Z"/>
  <path d="M13.6,15.37c.25-3.1,1.94-6.12,4.64-7.17,4.79-1.55,8.07,4.54,7.52,8.99-.91,7.38-12.94,8.05-12.16-1.82ZM18.53,14.11c.09,1.08,0,3.91,1.45,3.8,1.39-.62,1.2-2.89.97-4.23-.93-3.31-2.49-3.09-2.41.43Z"/>
  <path d="M49.13,32.18c-.01.86,0,1.73-.03,2.59-.02.75.85,1.69.06,2.23-.38.26-1.37-.65-2.14-.94-.7-.27-3.07-.62-1.55-1.84,1.03-1.61.46-3.65.58-5.46-.04-2.09.01-4.19-.13-6.28.02-1.53,3.72-.15,4.5.23,1.52.74,2.88,2.1,3.1,3.84.13,1.39-.64,2.84-2.36,2.71-.02,1.18,1.28,4.4,2.62,4.23.55-.03.35-.73.5-1.1.24-.8,1.21-.6,1.67-.12,2.44,2.43,1.25,9.3-3.06,7.92-2.56-.88-3.05-5.95-3.77-8.01ZM49.06,24.49c-.18.32-.03,1.36-.08,1.75,1.42.47,1.73-1.65.08-1.75Z"/>
  <path d="M35.13,20.18c-7.29,5.33-11-10.62-5-13.27,6.47-2.76,9.86,6.57,7.03,11.17-.55.76.92,1.02.49,1.77-.54.99-1.94,1.7-2.51.32ZM33.57,12.2c.11-1.5-1.14-3.62-2.01-1.36-.53.85-.22,5.15,1.27,4.35.61-.84.72-2.14.74-2.99Z"/>
  <path d="M40.55,24.57c.12.33-.24,1.87-.01,2.16.05.07,1.03-.27,1.16-.02.09.28-.16.7-.13,1.13.04.51.3,1.04-.02,1.25-.13.09-.42-.08-.65-.11-.15,0-.44-.19-.51.24-.05.35-.35,1.2.2,1.44.48.22,2.78-.9,3.27-.3.26.32-.08,1.11-.08,2.05,0,.86.79,1.56.17,2.18-.43.43-2.83-.59-4.31-.92s-3.86-.12-3.9-.72c-.05-.65.43-1.57.56-2.66.43-2.35-.41-4.78.05-7.1.38-1.11,2.27-.9,3.52-1.05,1.71-.2,4.31-1.18,4.71-.46.31.58-.1.9-.17,1.28-.13.65.17,1.52-.32,1.84-.35.23-.96-.28-1.76-.31-.57.01-1.15.04-1.77.06Z"/>
  <path d="M30.14,30.71c2.26.04,2.65-.24,3.84-2.17,1.93-1.33,1.97,4.53.09,4.51-1.66-.13-4.81.17-6.25.42-.22,0-.53.21-.64-.06-1.65-2.95.53-4.67,1.83-7.06-.53.01-1.03.16-1.56.23-.54.02-.56.69-1,.9-.37.21-.79.11-1.02-.26-.46-.87-.23-1.94-.34-2.89-.02-.39.16-.71.57-.56,4.04,1.94,9.83-3.02,9.77-.8-.96,3.1-3.13,5.47-5.29,7.74Z"/>
  <path d="M46.04,50.11c-1.36-.05-2.78-.59-1.37-2.14,1.07-1.26,2.13-2.55,2.84-4.1.49-.88,1.21-3.82-.5-3.44-1.91.76-.76,3.35-1.89,4.71-2.58,2.47-5.09-2.65-1.7-5.47,3.16-3.53,9.34-1.72,7.23,3.85-.45.95-1.01,1.83-1.51,2.74-1.61,2.98,2.56,3.33-3.1,3.84Z"/>
  <path d="M21.91,34.02c.4-1.29-.24-2.31-1.36-1.17-.96.96-.17,2.19-.83,2.66-.73.29-1.48.6-2.17.99-.83.65-2.1.52-1.55-1.14.67-1.32,3.41-6.77,4.39-9.09.66-1.28,2.21-3.52,3.32-1.38.92,1.92,1,4.14,1.72,6.14.06.7,1.68,2.03.52,2.53-.46.09-.9.2-1.6.37-.59.02-2.46,1.26-2.45.09ZM21.18,30.01c.1.12,1.2-.07,1-.47-.06-.39-.09-.77-.23-1.15-.27.56-.52,1.09-.77,1.62Z"/>
  <path d="M38.47,15.08c.06-1.4.54-3.9.24-5.41-1.64-4.12,3.32-1.19,4.76-.5.66.32.69.69-.02,1.2-.44.25-.93.5-.9,1.08-.02.89-.03,3.59-.03,4.48.04,2.63,2.01,1.42,2.05-.47.03-1.3.21-3.7-.02-4.54-.12-1.85,1.56-.26,2.3.46s-.31.55-.52,4.13c-.08,1.39-.07,2.87-.87,4.07-1.06,1.58-3.06,1.37-4.49.69-1.98-1.01-2.37-2.98-2.5-5.19Z"/>
  <path d="M49.45,16.74c-.25,1.3,1.35.5,1.2,1.91,0,1.01-1.64-.2-1.08.55,1.36.92,1.51-.43,2.05.62,1.07,3.06-1.38,2.06-3.1,1.3-3.24-1.09-1.35-2.87-1.34-5.27.13-.66-.5-2.64.71-2.84,1.09-.18,1.37.53,2.08,1.13.81.7,1.68,1.01,1.71,1.74.1.57-.27,2.36-1.13,1.49-.26-.37-.67-.59-1.1-.64Z"/>
  <path d="M46.26,53.15c-1.19-.03-2.52-.54-1.89-1.97.41-.89,1.5-.49,2.26-.71.8.06,1.57-.23,2.36-.11.29.05.46.25.54.52.46,1.85-1.94,2.2-3.28,2.28Z"/>
  <g>
    <path d="M15.06,41.82c-.47-.98-.29-2.87,1.14-1.83.39.11,2.26,3.53,1.04,2.42-.37-.69-.65-1.44-1.18-2.02-.71-.77-1.06.13-.78.8.04.68,1.1,1.68.91,2.03-.46.2-1.44-1.51-2.15-1.47-.01.96.85,1.74,1.56,2.29.12.06.29.16.2.31-1.34.37-3.69-4.47-.74-2.52Z"/>
    <path class="st0" d="M15.64,44.67c-.25,0-.58-.1-.99-.45-.33-.29-.65-.7-.91-1.16-.22-.4-.7-1.39-.21-1.84.26-.24.64-.19,1.02-.03-.02-.16-.04-.33-.03-.49,0-.51.16-.91.42-1.13.21-.17.66-.38,1.4.14.13.06.39.27.93,1.21.15.25.63,1.12.67,1.54.03.28-.13.39-.2.43-.27.14-.56-.12-.71-.26l-.04-.03-.02-.05c-.11-.2-.21-.4-.3-.6-.25-.5-.48-.98-.84-1.36-.14-.16-.24-.2-.27-.2-.06.05-.13.36,0,.67l.02.05v.05c.02.25.28.66.49.98.32.49.57.88.39,1.22l-.05.09-.1.04c-.42.18-.82-.23-1.29-.71-.17-.17-.39-.4-.6-.56.22.62.84,1.16,1.34,1.54.12.06.29.17.35.37.02.08.03.21-.05.36l-.06.11-.12.03c-.07.02-.14.03-.23.03Z"/>
  </g>
  <g>
    <path d="M11.96,44.65c-1.24.03-1.08-2.09.14-1.82.24.03.24.39-.06.34-.48-.08-.73.53-.47.89.16.25.42.24.59,0,.26-.48.73-.06.35.29-.29.41-.05,1,.2,1.38.44.71,1.53.46,1.37-.45,0-.54-.69-.64-.54-.94.63-.36,1.15.98.87,1.48-.71,1.69-2.54.18-2.45-1.16Z"/>
    <path class="st0" d="M13.5,46.86c-.09,0-.19-.01-.29-.03-.78-.18-1.46-1.05-1.55-1.9-.32-.07-.57-.27-.72-.57-.23-.45-.17-1.06.13-1.45.26-.33.65-.46,1.09-.37.18.03.32.14.39.3.07.16.04.34-.06.48-.11.14-.29.2-.49.16-.03,0-.11-.02-.17.09-.05.09-.07.23,0,.32h0s.02.05.03.05c0,0,.02-.02.04-.04.14-.24.36-.38.59-.36.2.02.37.15.44.35.08.22.01.47-.18.66-.16.27.01.71.22,1.01h0c.15.26.42.32.6.25.18-.07.26-.24.22-.47v-.03s0-.03,0-.03c0-.13-.08-.21-.24-.35-.08-.07-.17-.14-.23-.23-.1-.15-.12-.33-.04-.49l.04-.08.08-.05c.31-.18.65-.12.92.15.39.38.64,1.23.38,1.73-.15.36-.37.62-.63.77-.17.1-.36.15-.56.15Z"/>
  </g>
</svg>