<?xml version="1.0" encoding="UTF-8"?>
<svg id="Layer_1" xmlns="http://www.w3.org/2000/svg" version="1.1" viewBox="0 0 64 64">
  <!-- Generator: Adobe Illustrator 30.1.0, SVG Export Plug-In . SVG Version: 2.1.1 Build 136)  -->
  <defs>
    <style>
      .st0 {
        fill: #e38067;
      }

      .st1 {
        fill: #e9f2d1;
      }

      .st2 {
        fill: #c7e4c9;
      }

      .st3 {
        fill: #da2b27;
      }

      .st4 {
        fill: #fcf5db;
      }

      .st5 {
        fill: #faf6dc;
      }

      .st6 {
        fill: #e2eeca;
      }

      .st7 {
        fill: #088a48;
      }
    </style>
  </defs>
  <path class="st4" d="M42.27,57.47c-14.67,4.08-31.24-.45-36.26-15.58-3.86-11.62,3.36-18.46,3.37-19.92,0-.43-.51-.68-.77-1.14-1.31-2.28-.43-5.19,1.74-6.55l4.15-2.61c1.21-3.68,4.79-5.69,8.62-4.61,3.59,1.01,4.41-3.01,8.66-1.7,2.58.79,1.95,3.64,3.11,5.11,1.73,2.2,5.92,1.56,8.26,1.18,1.72-.28,2.88-.08,3.85.86s1.06,2.3.92,3.87c7.36,4.19,11.55,11.77,11.18,20.23-.29,6.69-3.27,12.73-8.66,16.67-2.52,1.85-5.13,3.32-8.18,4.17Z"/>
  <g>
    <path class="st3" d="M26.35,21.26c.72,2.08-1.56,4.1-3.29,4.67-2.67.87,5.34,4.61,10.11-1.82,1.44,1.17,2.64,1.77,4.12,2.24l5.4,1.71c1.34-4.82-2.86-6.57-5.6-9.12,6.15-1.46,12.39,3.93,14.41,9.48,1.9,5.23,1.76,11.17-1.18,16-5.25,8.64-18.03,10.01-26.94,7.15-9.72-3.13-15.09-13.75-11.36-23.28,1.39-3.55,4.62-6.83,8.3-7.72,1.65-.32,4.26.7,6.03.68Z"/>
    <path class="st5" d="M27.34,30.62c.65.91.88,2.58-.24,3.07-.45-.22-.73-.34-.79,0-.04.19-.02.42.02.86-1.28-.33-1.77,1.35-2.67,1.71-1.01.41-1.95.63-2.84,1.5-.33.32-1.27.16-1.72.91-2.48-1.84-4.09-4.89-3.33-8.02.5-2.04,2.28-4.13,4.39-3.72,1.3.25,2.03,1.69,3.24,2.06,1.44.43,2.81.83,3.95,1.64Z"/>
    <path class="st0" d="M27.1,33.69c-.1-1.03.15-2.03.24-3.07,1.02.73,1.3,1.84,2.79,2.01-.76.84-.93-.3-1.74.06.28.75.18,1.09-.3,1.27s-.81.19-1-.27Z"/>
  </g>
  <g>
    <path class="st7" d="M41.18,26.87c-3.09-2.89-5.28-1.26-8.71-5.32-.15,4.32-4.78,5.57-7.6,4.86,1.72-1.54,2.48-3.61,3.4-5.5.12-.25.82-1.15.14-1.1-2.68.21-5.29.6-7.62-.97-1.97-1.32-3.77-4.24-1.95-6.28,1.43-1.6,4.27-.41,5.48.92,1.29,1.42,2.27,2.66,4.11,3.52-.69-1.79-1.41-3.19-.88-5.03.36-1.26,1.53-2.95,3.28-3.33l-1.26,3.71c-.57,1.68.66,3.5,1.58,4.94,1.81-2.63,4.81-4.02,7.51-2.46,1.34.78,2.43,1.35,4.28.94-3.45,3.85-3.64-2.89-9.35,3.31,3.09,1.86,8.24,3.14,7.59,7.79Z"/>
    <path class="st1" d="M26.36,18.03c-2,.12-4.21-.31-5.59-1.74,1.28-1.21-1.04-.97-.07-2.71.92-1.63,3.13,1.62,3.7,2.37.32.95,1.15,1.08,1.96,2.07Z"/>
    <path class="st6" d="M30.47,21.7c.39,1.16-.05,2.09-.65,2.72-.67.69-1.56,1.28-2.67.82.1-.35,2.79-5.13,3.32-3.54Z"/>
    <path class="st2" d="M39.61,24.2c-1.89-.19-4.05-1.09-5.22-2.99,2.1.08,3.64,1.2,5.22,2.99Z"/>
  </g>
</svg>